<svg width="20" height="20" viewBox="0 0 20 20" fill="none" xmlns="http://www.w3.org/2000/svg">
<g clip-path="url(#clip0_55_337)">
<path d="M18.453 0H1.55C0.696875 0 0 0.696875 0 1.55V18.4532C0 19.3031 0.696875 20 1.55 20H18.453C19.3031 20 20 19.3031 20 18.4532V1.55C20 0.696875 19.3031 0 18.453 0ZM16.55 8.05617L9.28133 14.7093C9.01566 14.9531 8.67187 15.0874 8.30934 15.0874C7.91246 15.0874 7.52809 14.9186 7.25617 14.6281L3.28855 10.3816L3.25316 10.3436L3.44055 10.1686C3.9125 9.72809 4.525 9.48746 5.1718 9.48746C5.86867 9.48746 6.54691 9.77801 7.02176 10.2907L8.38437 11.7468L16.5344 4.28754L16.7093 4.47492C17.65 5.50613 17.5812 7.11258 16.55 8.05617Z" fill="#F1EBE5"/>
</g>
<defs>
<clipPath id="clip0_55_337">
<rect width="20" height="20" fill="white"/>
</clipPath>
</defs>
</svg>
