<svg width="480" height="270" viewBox="0 0 480 270" fill="none" xmlns="http://www.w3.org/2000/svg">
<rect width="480" height="270" fill="white"/>
<path d="M136.935 139.19H148.065V140.255H136.935V139.19ZM135.87 128.375H149.145V129.44H135.87V128.375ZM136.335 130.94H137.43V141.2H136.335V130.94ZM147.615 130.94H148.71V141.155H147.615V130.94ZM141.87 128.705H143.01V131.6H141.87V128.705ZM141.945 131.525H142.95V137.465H141.945V131.525ZM139.815 134.93V136.91H145.095V134.93H139.815ZM139.815 132.065V134.03H145.095V132.065H139.815ZM138.855 131.12H146.085V137.87H138.855V131.12ZM157.065 127.415L158.16 127.61C157.77 128.32 157.28 129.04 156.69 129.77C156.11 130.5 155.42 131.18 154.62 131.81C154.52 131.69 154.39 131.57 154.23 131.45C154.07 131.32 153.92 131.22 153.78 131.15C154.3 130.79 154.77 130.395 155.19 129.965C155.61 129.535 155.975 129.105 156.285 128.675C156.605 128.235 156.865 127.815 157.065 127.415ZM157.155 128.36H160.77V129.245H156.45L157.155 128.36ZM156.09 131.18V132.89H162.75V131.18H156.09ZM155.055 130.355H163.83V133.715H155.055V130.355ZM158.85 130.7H159.87V133.25H158.85V130.7ZM158.895 132.965L159.78 133.325C159.37 133.705 158.885 134.07 158.325 134.42C157.775 134.77 157.19 135.09 156.57 135.38C155.96 135.67 155.365 135.92 154.785 136.13C154.745 136.06 154.685 135.975 154.605 135.875C154.525 135.775 154.44 135.68 154.35 135.59C154.27 135.49 154.195 135.41 154.125 135.35C154.705 135.17 155.29 134.96 155.88 134.72C156.48 134.48 157.04 134.21 157.56 133.91C158.09 133.61 158.535 133.295 158.895 132.965ZM157.32 134.57L158.07 134.105C158.64 134.515 159.1 134.975 159.45 135.485C159.81 135.995 160.075 136.52 160.245 137.06C160.415 137.59 160.505 138.1 160.515 138.59C160.525 139.07 160.46 139.5 160.32 139.88C160.18 140.26 159.98 140.545 159.72 140.735C159.5 140.915 159.28 141.035 159.06 141.095C158.84 141.165 158.58 141.205 158.28 141.215C158.12 141.215 157.935 141.21 157.725 141.2C157.525 141.19 157.32 141.18 157.11 141.17C157.1 141.04 157.075 140.88 157.035 140.69C156.995 140.51 156.93 140.345 156.84 140.195C157.08 140.225 157.305 140.245 157.515 140.255C157.735 140.265 157.915 140.27 158.055 140.27C158.245 140.27 158.41 140.255 158.55 140.225C158.7 140.195 158.84 140.125 158.97 140.015C159.2 139.845 159.355 139.56 159.435 139.16C159.525 138.75 159.52 138.28 159.42 137.75C159.32 137.21 159.1 136.665 158.76 136.115C158.42 135.555 157.94 135.04 157.32 134.57ZM158.67 135.17L159.345 135.635C159.005 135.955 158.575 136.28 158.055 136.61C157.545 136.94 157.01 137.25 156.45 137.54C155.89 137.82 155.355 138.055 154.845 138.245C154.775 138.135 154.685 138.005 154.575 137.855C154.475 137.705 154.37 137.58 154.26 137.48C154.76 137.33 155.29 137.13 155.85 136.88C156.41 136.63 156.94 136.355 157.44 136.055C157.95 135.755 158.36 135.46 158.67 135.17ZM159.45 136.79L160.2 137.315C159.78 137.755 159.255 138.2 158.625 138.65C157.995 139.09 157.33 139.5 156.63 139.88C155.93 140.26 155.255 140.57 154.605 140.81C154.535 140.68 154.44 140.535 154.32 140.375C154.21 140.215 154.095 140.085 153.975 139.985C154.455 139.825 154.955 139.63 155.475 139.4C155.995 139.17 156.5 138.91 156.99 138.62C157.49 138.33 157.95 138.03 158.37 137.72C158.8 137.41 159.16 137.1 159.45 136.79ZM163.485 134.165L164.28 134.84C163.89 135.18 163.455 135.525 162.975 135.875C162.495 136.215 162.055 136.505 161.655 136.745L160.995 136.145C161.255 135.975 161.535 135.775 161.835 135.545C162.145 135.315 162.445 135.08 162.735 134.84C163.025 134.6 163.275 134.375 163.485 134.165ZM160.56 133.13C160.77 134.08 161.055 134.985 161.415 135.845C161.775 136.695 162.215 137.45 162.735 138.11C163.265 138.76 163.86 139.275 164.52 139.655C164.44 139.725 164.35 139.815 164.25 139.925C164.15 140.025 164.055 140.13 163.965 140.24C163.885 140.35 163.815 140.455 163.755 140.555C163.065 140.105 162.45 139.515 161.91 138.785C161.37 138.055 160.915 137.225 160.545 136.295C160.175 135.365 159.87 134.375 159.63 133.325L160.56 133.13ZM160.41 128.36H160.65L160.86 128.3L161.55 128.78C161.31 129.19 161.025 129.61 160.695 130.04C160.375 130.46 160.07 130.815 159.78 131.105C159.7 131.005 159.595 130.89 159.465 130.76C159.335 130.63 159.225 130.53 159.135 130.46C159.375 130.2 159.615 129.895 159.855 129.545C160.095 129.185 160.28 128.855 160.41 128.555V128.36ZM153.495 127.475L154.53 127.76C154.25 128.63 153.915 129.49 153.525 130.34C153.145 131.19 152.73 131.995 152.28 132.755C151.83 133.505 151.355 134.17 150.855 134.75C150.825 134.66 150.775 134.545 150.705 134.405C150.635 134.255 150.56 134.11 150.48 133.97C150.4 133.82 150.33 133.7 150.27 133.61C150.71 133.1 151.13 132.52 151.53 131.87C151.93 131.21 152.295 130.505 152.625 129.755C152.965 129.005 153.255 128.245 153.495 127.475ZM152.28 131.15L153.33 130.115L153.36 130.145V141.2H152.28V131.15ZM170.985 133.16H179.22V135.815H178.17V134.075H172.005V135.815H170.985V133.16ZM175.785 135.08H176.85V139.595C176.85 139.775 176.87 139.89 176.91 139.94C176.95 139.99 177.05 140.015 177.21 140.015C177.26 140.015 177.35 140.015 177.48 140.015C177.62 140.015 177.76 140.015 177.9 140.015C178.04 140.015 178.14 140.015 178.2 140.015C178.31 140.015 178.39 139.97 178.44 139.88C178.5 139.79 178.54 139.605 178.56 139.325C178.59 139.035 178.61 138.605 178.62 138.035C178.7 138.095 178.795 138.155 178.905 138.215C179.015 138.265 179.13 138.315 179.25 138.365C179.37 138.405 179.48 138.44 179.58 138.47C179.55 139.14 179.49 139.66 179.4 140.03C179.32 140.41 179.195 140.67 179.025 140.81C178.855 140.95 178.62 141.02 178.32 141.02C178.27 141.02 178.185 141.02 178.065 141.02C177.945 141.02 177.815 141.02 177.675 141.02C177.545 141.02 177.42 141.02 177.3 141.02C177.19 141.02 177.11 141.02 177.06 141.02C176.72 141.02 176.455 140.975 176.265 140.885C176.085 140.805 175.96 140.66 175.89 140.45C175.82 140.25 175.785 139.965 175.785 139.595V135.08ZM173.205 135.065H174.27C174.23 135.875 174.16 136.605 174.06 137.255C173.96 137.895 173.795 138.465 173.565 138.965C173.335 139.455 173.01 139.885 172.59 140.255C172.18 140.635 171.64 140.955 170.97 141.215C170.93 141.125 170.87 141.025 170.79 140.915C170.72 140.805 170.64 140.695 170.55 140.585C170.47 140.485 170.39 140.4 170.31 140.33C170.92 140.11 171.41 139.845 171.78 139.535C172.15 139.225 172.43 138.86 172.62 138.44C172.82 138.01 172.96 137.52 173.04 136.97C173.12 136.41 173.175 135.775 173.205 135.065ZM171.045 128.75H179.16V129.695H171.045V128.75ZM171.54 131.105H178.71V132.05H171.54V131.105ZM174.465 127.385H175.575V131.6H174.465V127.385ZM166.215 131.945H170.265V132.83H166.215V131.945ZM166.305 127.925H170.22V128.825H166.305V127.925ZM166.215 133.94H170.265V134.84H166.215V133.94ZM165.57 129.89H170.685V130.835H165.57V129.89ZM166.74 135.965H170.28V140.33H166.74V139.4H169.32V136.895H166.74V135.965ZM166.2 135.965H167.16V141.035H166.2V135.965ZM183.345 129.005C183.535 129.015 183.73 129.025 183.93 129.035C184.14 129.045 184.32 129.05 184.47 129.05C184.67 129.05 184.925 129.045 185.235 129.035C185.555 129.025 185.885 129.01 186.225 128.99C186.565 128.97 186.885 128.955 187.185 128.945C187.485 128.925 187.71 128.91 187.86 128.9C188.01 128.88 188.145 128.86 188.265 128.84C188.395 128.81 188.51 128.775 188.61 128.735L189.36 129.35C189.29 129.43 189.22 129.51 189.15 129.59C189.09 129.67 189.03 129.755 188.97 129.845C188.81 130.105 188.62 130.475 188.4 130.955C188.18 131.425 187.945 131.94 187.695 132.5C187.455 133.05 187.215 133.58 186.975 134.09C186.825 134.43 186.66 134.8 186.48 135.2C186.31 135.59 186.135 135.99 185.955 136.4C185.775 136.8 185.595 137.175 185.415 137.525C185.245 137.875 185.08 138.165 184.92 138.395C184.65 138.775 184.365 139.045 184.065 139.205C183.765 139.355 183.42 139.43 183.03 139.43C182.47 139.43 182.005 139.245 181.635 138.875C181.265 138.505 181.08 138.005 181.08 137.375C181.08 136.815 181.205 136.295 181.455 135.815C181.715 135.325 182.07 134.9 182.52 134.54C182.98 134.18 183.525 133.9 184.155 133.7C184.795 133.5 185.495 133.4 186.255 133.4C187.095 133.4 187.905 133.5 188.685 133.7C189.475 133.89 190.21 134.14 190.89 134.45C191.58 134.75 192.205 135.07 192.765 135.41C193.335 135.74 193.82 136.05 194.22 136.34L193.665 137.63C193.225 137.25 192.73 136.875 192.18 136.505C191.63 136.125 191.03 135.78 190.38 135.47C189.73 135.16 189.04 134.91 188.31 134.72C187.59 134.53 186.845 134.435 186.075 134.435C185.255 134.435 184.55 134.575 183.96 134.855C183.38 135.125 182.935 135.475 182.625 135.905C182.325 136.325 182.175 136.765 182.175 137.225C182.175 137.555 182.265 137.81 182.445 137.99C182.635 138.16 182.845 138.245 183.075 138.245C183.245 138.245 183.4 138.205 183.54 138.125C183.68 138.045 183.825 137.91 183.975 137.72C184.135 137.51 184.295 137.255 184.455 136.955C184.615 136.655 184.775 136.33 184.935 135.98C185.095 135.63 185.25 135.275 185.4 134.915C185.55 134.555 185.7 134.22 185.85 133.91C186.05 133.47 186.25 133.015 186.45 132.545C186.66 132.075 186.865 131.62 187.065 131.18C187.275 130.74 187.465 130.34 187.635 129.98C187.485 129.99 187.27 130 186.99 130.01C186.72 130.02 186.425 130.035 186.105 130.055C185.785 130.065 185.48 130.08 185.19 130.1C184.91 130.11 184.685 130.12 184.515 130.13C184.355 130.14 184.175 130.155 183.975 130.175C183.775 130.185 183.585 130.2 183.405 130.22L183.345 129.005ZM192.72 132.29C192.67 133.35 192.565 134.315 192.405 135.185C192.245 136.055 192 136.84 191.67 137.54C191.34 138.24 190.89 138.87 190.32 139.43C189.75 139.98 189.03 140.47 188.16 140.9L187.17 140.075C188.05 139.705 188.765 139.265 189.315 138.755C189.865 138.235 190.29 137.68 190.59 137.09C190.9 136.49 191.115 135.885 191.235 135.275C191.365 134.665 191.455 134.085 191.505 133.535C191.515 133.305 191.52 133.07 191.52 132.83C191.53 132.59 191.525 132.365 191.505 132.155L192.72 132.29ZM201.075 128.165H204.225V129.23H201.075V128.165ZM203.535 128.165H204.765C204.865 129.305 205.015 130.385 205.215 131.405C205.415 132.415 205.69 133.34 206.04 134.18C206.4 135.01 206.845 135.74 207.375 136.37C207.915 137 208.56 137.51 209.31 137.9C209.22 137.95 209.12 138.025 209.01 138.125C208.9 138.225 208.79 138.33 208.68 138.44C208.58 138.55 208.495 138.65 208.425 138.74C207.665 138.3 207.01 137.75 206.46 137.09C205.92 136.42 205.47 135.66 205.11 134.81C204.75 133.95 204.465 133.01 204.255 131.99C204.045 130.96 203.885 129.865 203.775 128.705H203.535V128.165ZM203.595 131.06L204.75 131.24C204.4 132.94 203.865 134.415 203.145 135.665C202.435 136.915 201.52 137.94 200.4 138.74C200.35 138.67 200.27 138.585 200.16 138.485C200.06 138.375 199.95 138.27 199.83 138.17C199.71 138.06 199.605 137.97 199.515 137.9C200.625 137.2 201.505 136.27 202.155 135.11C202.815 133.95 203.295 132.6 203.595 131.06ZM198.93 133.325V138.635H197.835V134.375H195.735V133.325H198.93ZM198.93 138.14C199.29 138.69 199.79 139.1 200.43 139.37C201.07 139.64 201.825 139.79 202.695 139.82C203.105 139.84 203.6 139.855 204.18 139.865C204.77 139.865 205.385 139.86 206.025 139.85C206.675 139.84 207.3 139.825 207.9 139.805C208.5 139.785 209.025 139.76 209.475 139.73C209.425 139.81 209.375 139.92 209.325 140.06C209.275 140.2 209.23 140.34 209.19 140.48C209.15 140.63 209.12 140.76 209.1 140.87C208.69 140.89 208.205 140.905 207.645 140.915C207.085 140.925 206.505 140.93 205.905 140.93C205.305 140.94 204.72 140.94 204.15 140.93C203.59 140.93 203.105 140.925 202.695 140.915C201.715 140.875 200.875 140.715 200.175 140.435C199.485 140.155 198.9 139.715 198.42 139.115C198.06 139.435 197.69 139.755 197.31 140.075C196.93 140.405 196.535 140.74 196.125 141.08L195.54 139.925C195.9 139.685 196.285 139.41 196.695 139.1C197.115 138.78 197.52 138.46 197.91 138.14H198.93ZM195.9 128.435L196.725 127.76C197.055 127.97 197.39 128.215 197.73 128.495C198.07 128.765 198.38 129.04 198.66 129.32C198.95 129.6 199.185 129.86 199.365 130.1L198.465 130.85C198.315 130.61 198.095 130.345 197.805 130.055C197.525 129.765 197.215 129.48 196.875 129.2C196.545 128.91 196.22 128.655 195.9 128.435ZM213.345 129.005C213.535 129.015 213.73 129.025 213.93 129.035C214.14 129.045 214.32 129.05 214.47 129.05C214.67 129.05 214.925 129.045 215.235 129.035C215.555 129.025 215.885 129.01 216.225 128.99C216.565 128.97 216.885 128.955 217.185 128.945C217.485 128.925 217.71 128.91 217.86 128.9C218.01 128.88 218.145 128.86 218.265 128.84C218.395 128.81 218.51 128.775 218.61 128.735L219.36 129.35C219.29 129.43 219.22 129.51 219.15 129.59C219.09 129.67 219.03 129.755 218.97 129.845C218.81 130.105 218.62 130.475 218.4 130.955C218.18 131.425 217.945 131.94 217.695 132.5C217.455 133.05 217.215 133.58 216.975 134.09C216.825 134.43 216.66 134.8 216.48 135.2C216.31 135.59 216.135 135.99 215.955 136.4C215.775 136.8 215.595 137.175 215.415 137.525C215.245 137.875 215.08 138.165 214.92 138.395C214.65 138.775 214.365 139.045 214.065 139.205C213.765 139.355 213.42 139.43 213.03 139.43C212.47 139.43 212.005 139.245 211.635 138.875C211.265 138.505 211.08 138.005 211.08 137.375C211.08 136.815 211.205 136.295 211.455 135.815C211.715 135.325 212.07 134.9 212.52 134.54C212.98 134.18 213.525 133.9 214.155 133.7C214.795 133.5 215.495 133.4 216.255 133.4C217.095 133.4 217.905 133.5 218.685 133.7C219.475 133.89 220.21 134.14 220.89 134.45C221.58 134.75 222.205 135.07 222.765 135.41C223.335 135.74 223.82 136.05 224.22 136.34L223.665 137.63C223.225 137.25 222.73 136.875 222.18 136.505C221.63 136.125 221.03 135.78 220.38 135.47C219.73 135.16 219.04 134.91 218.31 134.72C217.59 134.53 216.845 134.435 216.075 134.435C215.255 134.435 214.55 134.575 213.96 134.855C213.38 135.125 212.935 135.475 212.625 135.905C212.325 136.325 212.175 136.765 212.175 137.225C212.175 137.555 212.265 137.81 212.445 137.99C212.635 138.16 212.845 138.245 213.075 138.245C213.245 138.245 213.4 138.205 213.54 138.125C213.68 138.045 213.825 137.91 213.975 137.72C214.135 137.51 214.295 137.255 214.455 136.955C214.615 136.655 214.775 136.33 214.935 135.98C215.095 135.63 215.25 135.275 215.4 134.915C215.55 134.555 215.7 134.22 215.85 133.91C216.05 133.47 216.25 133.015 216.45 132.545C216.66 132.075 216.865 131.62 217.065 131.18C217.275 130.74 217.465 130.34 217.635 129.98C217.485 129.99 217.27 130 216.99 130.01C216.72 130.02 216.425 130.035 216.105 130.055C215.785 130.065 215.48 130.08 215.19 130.1C214.91 130.11 214.685 130.12 214.515 130.13C214.355 130.14 214.175 130.155 213.975 130.175C213.775 130.185 213.585 130.2 213.405 130.22L213.345 129.005ZM222.72 132.29C222.67 133.35 222.565 134.315 222.405 135.185C222.245 136.055 222 136.84 221.67 137.54C221.34 138.24 220.89 138.87 220.32 139.43C219.75 139.98 219.03 140.47 218.16 140.9L217.17 140.075C218.05 139.705 218.765 139.265 219.315 138.755C219.865 138.235 220.29 137.68 220.59 137.09C220.9 136.49 221.115 135.885 221.235 135.275C221.365 134.665 221.455 134.085 221.505 133.535C221.515 133.305 221.52 133.07 221.52 132.83C221.53 132.59 221.525 132.365 221.505 132.155L222.72 132.29ZM231.84 129.875C232.25 129.935 232.725 129.985 233.265 130.025C233.815 130.055 234.38 130.07 234.96 130.07C235.55 130.06 236.11 130.04 236.64 130.01C237.18 129.97 237.635 129.92 238.005 129.86V131.075C237.605 131.115 237.135 131.15 236.595 131.18C236.065 131.2 235.51 131.21 234.93 131.21C234.36 131.21 233.805 131.2 233.265 131.18C232.725 131.15 232.25 131.115 231.84 131.075V129.875ZM232.425 135.98C232.355 136.25 232.3 136.495 232.26 136.715C232.22 136.935 232.2 137.15 232.2 137.36C232.2 137.53 232.235 137.7 232.305 137.87C232.385 138.03 232.515 138.175 232.695 138.305C232.885 138.425 233.145 138.525 233.475 138.605C233.805 138.675 234.225 138.71 234.735 138.71C235.415 138.71 236.055 138.68 236.655 138.62C237.255 138.55 237.855 138.45 238.455 138.32L238.485 139.58C238.015 139.68 237.465 139.76 236.835 139.82C236.215 139.87 235.515 139.895 234.735 139.895C233.475 139.895 232.55 139.695 231.96 139.295C231.38 138.895 231.09 138.345 231.09 137.645C231.09 137.395 231.11 137.13 231.15 136.85C231.2 136.56 231.265 136.235 231.345 135.875L232.425 135.98ZM228.975 128.72C228.955 128.8 228.925 128.905 228.885 129.035C228.855 129.155 228.82 129.28 228.78 129.41C228.75 129.53 228.725 129.635 228.705 129.725C228.655 130.005 228.595 130.33 228.525 130.7C228.455 131.06 228.385 131.45 228.315 131.87C228.255 132.28 228.195 132.7 228.135 133.13C228.085 133.55 228.04 133.96 228 134.36C227.97 134.76 227.955 135.13 227.955 135.47C227.955 135.84 227.965 136.19 227.985 136.52C228.015 136.85 228.05 137.2 228.09 137.57C228.18 137.34 228.275 137.095 228.375 136.835C228.475 136.575 228.575 136.32 228.675 136.07C228.785 135.81 228.88 135.58 228.96 135.38L229.59 135.86C229.46 136.22 229.32 136.615 229.17 137.045C229.02 137.475 228.885 137.89 228.765 138.29C228.655 138.68 228.575 138.99 228.525 139.22C228.505 139.33 228.485 139.45 228.465 139.58C228.445 139.71 228.44 139.815 228.45 139.895C228.46 139.975 228.465 140.06 228.465 140.15C228.475 140.25 228.485 140.34 228.495 140.42L227.415 140.495C227.265 139.965 227.135 139.285 227.025 138.455C226.915 137.615 226.86 136.69 226.86 135.68C226.86 135.13 226.885 134.57 226.935 134C226.985 133.42 227.05 132.86 227.13 132.32C227.21 131.77 227.285 131.27 227.355 130.82C227.435 130.36 227.495 129.975 227.535 129.665C227.565 129.485 227.59 129.305 227.61 129.125C227.63 128.935 227.64 128.76 227.64 128.6L228.975 128.72ZM240.81 134.15H254.205V135.275H240.81V134.15ZM243.54 127.61L244.71 127.85C244.51 128.59 244.265 129.31 243.975 130.01C243.695 130.7 243.385 131.345 243.045 131.945C242.705 132.545 242.35 133.07 241.98 133.52C241.9 133.46 241.79 133.395 241.65 133.325C241.52 133.245 241.385 133.17 241.245 133.1C241.115 133.03 241 132.975 240.9 132.935C241.29 132.505 241.65 132.01 241.98 131.45C242.32 130.88 242.62 130.27 242.88 129.62C243.14 128.96 243.36 128.29 243.54 127.61ZM243.405 130.025H252.945V131.165H242.85L243.405 130.025ZM248.175 134.375C248.635 135.885 249.39 137.135 250.44 138.125C251.49 139.105 252.865 139.79 254.565 140.18C254.485 140.26 254.395 140.36 254.295 140.48C254.205 140.6 254.115 140.725 254.025 140.855C253.945 140.985 253.875 141.1 253.815 141.2C252.635 140.9 251.61 140.455 250.74 139.865C249.88 139.275 249.15 138.545 248.55 137.675C247.96 136.795 247.485 135.78 247.125 134.63L248.175 134.375ZM246.84 127.4H248.01V132.065C248.01 132.755 247.965 133.45 247.875 134.15C247.795 134.84 247.63 135.52 247.38 136.19C247.13 136.86 246.76 137.5 246.27 138.11C245.78 138.72 245.135 139.29 244.335 139.82C243.535 140.34 242.535 140.805 241.335 141.215C241.295 141.125 241.235 141.02 241.155 140.9C241.075 140.78 240.985 140.66 240.885 140.54C240.795 140.42 240.71 140.32 240.63 140.24C241.75 139.86 242.685 139.435 243.435 138.965C244.185 138.485 244.785 137.975 245.235 137.435C245.695 136.885 246.04 136.315 246.27 135.725C246.5 135.125 246.65 134.52 246.72 133.91C246.8 133.29 246.84 132.675 246.84 132.065V127.4ZM263.4 130.175H269.415V131.24H263.4V130.175ZM263.91 127.385L265.08 127.58C264.89 128.52 264.655 129.425 264.375 130.295C264.095 131.155 263.775 131.955 263.415 132.695C263.055 133.435 262.655 134.08 262.215 134.63C262.145 134.57 262.05 134.495 261.93 134.405C261.82 134.305 261.7 134.21 261.57 134.12C261.45 134.03 261.345 133.955 261.255 133.895C261.695 133.385 262.085 132.79 262.425 132.11C262.765 131.42 263.055 130.675 263.295 129.875C263.545 129.075 263.75 128.245 263.91 127.385ZM267.135 130.73L268.305 130.865C268.045 132.575 267.67 134.085 267.18 135.395C266.7 136.705 266.055 137.84 265.245 138.8C264.435 139.76 263.41 140.57 262.17 141.23C262.13 141.14 262.07 141.03 261.99 140.9C261.91 140.77 261.825 140.64 261.735 140.51C261.645 140.39 261.56 140.29 261.48 140.21C262.65 139.63 263.61 138.9 264.36 138.02C265.11 137.14 265.705 136.095 266.145 134.885C266.595 133.675 266.925 132.29 267.135 130.73ZM263.985 131.03C264.255 132.43 264.625 133.74 265.095 134.96C265.565 136.18 266.165 137.245 266.895 138.155C267.635 139.055 268.535 139.745 269.595 140.225C269.505 140.305 269.41 140.4 269.31 140.51C269.21 140.63 269.11 140.75 269.01 140.87C268.92 140.99 268.845 141.105 268.785 141.215C267.685 140.645 266.755 139.875 265.995 138.905C265.235 137.935 264.61 136.8 264.12 135.5C263.64 134.19 263.25 132.76 262.95 131.21L263.985 131.03ZM257.34 137.615L258.435 137.885C258.205 138.515 257.91 139.13 257.55 139.73C257.19 140.32 256.81 140.82 256.41 141.23C256.34 141.17 256.25 141.095 256.14 141.005C256.03 140.925 255.915 140.845 255.795 140.765C255.685 140.685 255.585 140.62 255.495 140.57C255.885 140.19 256.24 139.74 256.56 139.22C256.89 138.7 257.15 138.165 257.34 137.615ZM259.485 138.035L260.385 137.6C260.695 137.95 260.99 138.34 261.27 138.77C261.56 139.19 261.775 139.555 261.915 139.865L260.97 140.375C260.83 140.055 260.615 139.675 260.325 139.235C260.045 138.795 259.765 138.395 259.485 138.035ZM257.4 131.69V133.58H260.505V131.69H257.4ZM257.4 134.465V136.385H260.505V134.465H257.4ZM257.4 128.915V130.79H260.505V128.915H257.4ZM256.335 127.985H261.615V137.315H256.335V127.985ZM275.1 128.315C275.06 128.565 275.03 128.82 275.01 129.08C274.99 129.33 274.975 129.58 274.965 129.83C274.945 130.25 274.925 130.77 274.905 131.39C274.885 132.01 274.865 132.67 274.845 133.37C274.825 134.06 274.81 134.75 274.8 135.44C274.79 136.13 274.785 136.75 274.785 137.3C274.785 137.85 274.89 138.29 275.1 138.62C275.31 138.95 275.6 139.185 275.97 139.325C276.34 139.465 276.765 139.535 277.245 139.535C277.925 139.535 278.54 139.45 279.09 139.28C279.64 139.1 280.13 138.865 280.56 138.575C280.99 138.275 281.37 137.94 281.7 137.57C282.04 137.2 282.345 136.82 282.615 136.43L283.47 137.45C283.21 137.81 282.89 138.185 282.51 138.575C282.14 138.955 281.7 139.31 281.19 139.64C280.68 139.97 280.09 140.24 279.42 140.45C278.76 140.66 278.02 140.765 277.2 140.765C276.49 140.765 275.86 140.655 275.31 140.435C274.76 140.215 274.33 139.86 274.02 139.37C273.71 138.88 273.555 138.23 273.555 137.42C273.555 136.97 273.56 136.475 273.57 135.935C273.58 135.385 273.595 134.82 273.615 134.24C273.635 133.66 273.65 133.095 273.66 132.545C273.67 131.985 273.68 131.47 273.69 131C273.7 130.53 273.705 130.14 273.705 129.83C273.705 129.55 273.695 129.28 273.675 129.02C273.655 128.76 273.625 128.52 273.585 128.3L275.1 128.315ZM293.595 128.09C293.575 128.22 293.555 128.365 293.535 128.525C293.525 128.685 293.515 128.875 293.505 129.095C293.505 129.245 293.5 129.47 293.49 129.77C293.49 130.07 293.49 130.41 293.49 130.79C293.49 131.16 293.49 131.535 293.49 131.915C293.49 132.295 293.49 132.645 293.49 132.965C293.49 133.465 293.5 133.99 293.52 134.54C293.54 135.09 293.565 135.625 293.595 136.145C293.625 136.665 293.65 137.14 293.67 137.57C293.69 138 293.7 138.34 293.7 138.59C293.7 138.94 293.615 139.275 293.445 139.595C293.285 139.915 293.01 140.175 292.62 140.375C292.24 140.585 291.72 140.69 291.06 140.69C289.98 140.69 289.155 140.5 288.585 140.12C288.015 139.75 287.73 139.205 287.73 138.485C287.73 138.025 287.865 137.625 288.135 137.285C288.415 136.945 288.815 136.68 289.335 136.49C289.855 136.29 290.475 136.19 291.195 136.19C291.985 136.19 292.725 136.285 293.415 136.475C294.115 136.655 294.755 136.885 295.335 137.165C295.915 137.445 296.43 137.74 296.88 138.05C297.33 138.35 297.7 138.62 297.99 138.86L297.3 139.925C296.96 139.605 296.565 139.285 296.115 138.965C295.675 138.645 295.19 138.35 294.66 138.08C294.14 137.81 293.575 137.595 292.965 137.435C292.365 137.265 291.725 137.18 291.045 137.18C290.325 137.18 289.775 137.3 289.395 137.54C289.025 137.78 288.84 138.075 288.84 138.425C288.84 138.645 288.91 138.85 289.05 139.04C289.19 139.22 289.415 139.365 289.725 139.475C290.035 139.585 290.435 139.64 290.925 139.64C291.215 139.64 291.48 139.605 291.72 139.535C291.96 139.455 292.15 139.32 292.29 139.13C292.44 138.94 292.515 138.675 292.515 138.335C292.515 138.045 292.505 137.67 292.485 137.21C292.475 136.74 292.46 136.245 292.44 135.725C292.42 135.195 292.4 134.685 292.38 134.195C292.37 133.705 292.365 133.295 292.365 132.965C292.365 132.625 292.365 132.28 292.365 131.93C292.365 131.57 292.365 131.215 292.365 130.865C292.365 130.515 292.365 130.18 292.365 129.86C292.375 129.54 292.38 129.25 292.38 128.99C292.38 128.87 292.375 128.715 292.365 128.525C292.355 128.335 292.34 128.19 292.32 128.09H293.595ZM287.85 129.725C288.1 129.765 288.39 129.805 288.72 129.845C289.05 129.885 289.395 129.925 289.755 129.965C290.125 129.995 290.475 130.02 290.805 130.04C291.145 130.05 291.44 130.055 291.69 130.055C292.64 130.055 293.61 130.02 294.6 129.95C295.6 129.88 296.585 129.765 297.555 129.605L297.54 130.7C296.99 130.76 296.39 130.82 295.74 130.88C295.09 130.94 294.42 130.99 293.73 131.03C293.05 131.07 292.375 131.09 291.705 131.09C291.355 131.09 290.94 131.075 290.46 131.045C289.98 131.015 289.505 130.98 289.035 130.94C288.575 130.9 288.185 130.865 287.865 130.835L287.85 129.725ZM287.775 132.905C288.045 132.945 288.345 132.985 288.675 133.025C289.005 133.065 289.345 133.095 289.695 133.115C290.045 133.135 290.38 133.155 290.7 133.175C291.02 133.185 291.305 133.19 291.555 133.19C292.285 133.19 292.99 133.175 293.67 133.145C294.36 133.105 295.035 133.055 295.695 132.995C296.365 132.925 297.025 132.84 297.675 132.74L297.66 133.865C297.16 133.935 296.66 133.995 296.16 134.045C295.67 134.085 295.175 134.12 294.675 134.15C294.185 134.18 293.68 134.205 293.16 134.225C292.65 134.235 292.11 134.24 291.54 134.24C291.2 134.24 290.805 134.23 290.355 134.21C289.915 134.19 289.465 134.165 289.005 134.135C288.555 134.105 288.15 134.07 287.79 134.03L287.775 132.905ZM305.1 128.315C305.06 128.565 305.03 128.82 305.01 129.08C304.99 129.33 304.975 129.58 304.965 129.83C304.945 130.25 304.925 130.77 304.905 131.39C304.885 132.01 304.865 132.67 304.845 133.37C304.825 134.06 304.81 134.75 304.8 135.44C304.79 136.13 304.785 136.75 304.785 137.3C304.785 137.85 304.89 138.29 305.1 138.62C305.31 138.95 305.6 139.185 305.97 139.325C306.34 139.465 306.765 139.535 307.245 139.535C307.925 139.535 308.54 139.45 309.09 139.28C309.64 139.1 310.13 138.865 310.56 138.575C310.99 138.275 311.37 137.94 311.7 137.57C312.04 137.2 312.345 136.82 312.615 136.43L313.47 137.45C313.21 137.81 312.89 138.185 312.51 138.575C312.14 138.955 311.7 139.31 311.19 139.64C310.68 139.97 310.09 140.24 309.42 140.45C308.76 140.66 308.02 140.765 307.2 140.765C306.49 140.765 305.86 140.655 305.31 140.435C304.76 140.215 304.33 139.86 304.02 139.37C303.71 138.88 303.555 138.23 303.555 137.42C303.555 136.97 303.56 136.475 303.57 135.935C303.58 135.385 303.595 134.82 303.615 134.24C303.635 133.66 303.65 133.095 303.66 132.545C303.67 131.985 303.68 131.47 303.69 131C303.7 130.53 303.705 130.14 303.705 129.83C303.705 129.55 303.695 129.28 303.675 129.02C303.655 128.76 303.625 128.52 303.585 128.3L305.1 128.315ZM321.645 128.195C321.595 128.365 321.545 128.57 321.495 128.81C321.445 129.05 321.405 129.245 321.375 129.395C321.305 129.755 321.22 130.175 321.12 130.655C321.03 131.125 320.925 131.62 320.805 132.14C320.695 132.66 320.57 133.17 320.43 133.67C320.3 134.2 320.14 134.78 319.95 135.41C319.76 136.03 319.56 136.655 319.35 137.285C319.14 137.915 318.925 138.51 318.705 139.07C318.485 139.63 318.28 140.12 318.09 140.54L316.77 140.09C317 139.7 317.23 139.235 317.46 138.695C317.7 138.145 317.93 137.56 318.15 136.94C318.38 136.32 318.59 135.705 318.78 135.095C318.98 134.475 319.15 133.905 319.29 133.385C319.39 133.035 319.485 132.665 319.575 132.275C319.665 131.885 319.75 131.505 319.83 131.135C319.91 130.755 319.975 130.41 320.025 130.1C320.085 129.78 320.13 129.52 320.16 129.32C320.19 129.11 320.21 128.89 320.22 128.66C320.23 128.43 320.225 128.235 320.205 128.075L321.645 128.195ZM318.315 130.7C318.875 130.7 319.475 130.675 320.115 130.625C320.765 130.565 321.425 130.48 322.095 130.37C322.765 130.26 323.41 130.125 324.03 129.965V131.15C323.41 131.29 322.76 131.41 322.08 131.51C321.4 131.61 320.73 131.69 320.07 131.75C319.42 131.8 318.83 131.825 318.3 131.825C317.97 131.825 317.665 131.82 317.385 131.81C317.105 131.79 316.83 131.775 316.56 131.765L316.515 130.595C316.875 130.635 317.195 130.665 317.475 130.685C317.765 130.695 318.045 130.7 318.315 130.7ZM323.055 132.77C323.455 132.73 323.89 132.7 324.36 132.68C324.84 132.65 325.32 132.635 325.8 132.635C326.24 132.635 326.68 132.645 327.12 132.665C327.57 132.685 327.995 132.72 328.395 132.77L328.365 133.91C327.985 133.86 327.58 133.82 327.15 133.79C326.72 133.75 326.285 133.73 325.845 133.73C325.375 133.73 324.905 133.745 324.435 133.775C323.975 133.795 323.515 133.83 323.055 133.88V132.77ZM323.37 136.415C323.31 136.655 323.26 136.89 323.22 137.12C323.18 137.35 323.16 137.565 323.16 137.765C323.16 137.945 323.19 138.12 323.25 138.29C323.32 138.45 323.445 138.595 323.625 138.725C323.805 138.855 324.06 138.96 324.39 139.04C324.73 139.12 325.165 139.16 325.695 139.16C326.185 139.16 326.68 139.135 327.18 139.085C327.68 139.035 328.16 138.96 328.62 138.86L328.575 140.075C328.175 140.135 327.73 140.185 327.24 140.225C326.75 140.265 326.23 140.285 325.68 140.285C324.5 140.285 323.595 140.105 322.965 139.745C322.335 139.375 322.02 138.82 322.02 138.08C322.02 137.79 322.04 137.5 322.08 137.21C322.13 136.92 322.185 136.62 322.245 136.31L323.37 136.415ZM332.91 136.34C333.34 136.34 333.725 136.445 334.065 136.655C334.405 136.855 334.68 137.13 334.89 137.48C335.1 137.82 335.205 138.2 335.205 138.62C335.205 139.04 335.1 139.425 334.89 139.775C334.68 140.115 334.405 140.39 334.065 140.6C333.725 140.81 333.34 140.915 332.91 140.915C332.49 140.915 332.105 140.81 331.755 140.6C331.415 140.39 331.14 140.115 330.93 139.775C330.73 139.425 330.63 139.04 330.63 138.62C330.63 138.2 330.73 137.82 330.93 137.48C331.14 137.13 331.42 136.855 331.77 136.655C332.12 136.445 332.5 136.34 332.91 136.34ZM332.91 140.15C333.34 140.15 333.7 140.005 333.99 139.715C334.29 139.415 334.44 139.05 334.44 138.62C334.44 138.35 334.37 138.1 334.23 137.87C334.1 137.64 333.92 137.455 333.69 137.315C333.46 137.175 333.2 137.105 332.91 137.105C332.64 137.105 332.39 137.175 332.16 137.315C331.93 137.455 331.745 137.64 331.605 137.87C331.465 138.1 331.395 138.35 331.395 138.62C331.395 138.9 331.465 139.16 331.605 139.4C331.745 139.63 331.93 139.815 332.16 139.955C332.39 140.085 332.64 140.15 332.91 140.15Z" fill="black"/>
</svg>
