<!--?xml version="1.0" encoding="utf-8"?-->
<!-- Generator: Adobe Illustrator 22.1.0, SVG Export Plug-In . SVG Version: 6.00 Build 0)  -->
<svg version="1.1" id="_x35_" xmlns="http://www.w3.org/2000/svg" xmlns:xlink="http://www.w3.org/1999/xlink" x="0px" y="0px" viewBox="0 0 800 714.499" style="enable-background:new 0 0 800 714.499;" xml:space="preserve">
<style type="text/css">
	.st0{fill:#020202;}
	.st1{fill:#FFC81A;}
</style>
<g>
	<g>
		<path class="st0" d="M717.677,712.712H82.322c-28.611,0-55.278-15.387-69.586-40.174c-14.315-24.787-14.315-55.582,0-80.369
			l317.68-550.204c14.309-24.782,40.958-40.179,69.58-40.179c28.628,0,55.29,15.397,69.598,40.179l317.675,550.228
			c14.309,24.763,14.309,55.558,0,80.345C772.971,697.326,746.299,712.712,717.677,712.712L717.677,712.712z" style="fill: rgb(130, 58, 66);"></path>
		<path class="st1" d="M741.157,618.814c4.838,8.369,4.838,18.757,0,27.126c-4.816,8.346-13.815,13.528-23.474,13.528l0,0H82.322
			c-9.648,0-18.654-5.182-23.469-13.551c-4.832-8.369-4.85-18.734-0.011-27.079L376.528,68.569
			c4.814-8.352,13.815-13.545,23.48-13.545c9.647,0,18.648,5.193,23.469,13.557L741.157,618.814z"></path>
	</g>
	<g>
		<path class="st0" d="M447.26,561.708c0,26.105-21.165,47.269-47.259,47.269c-26.094,0-47.27-21.164-47.27-47.269
			c0-26.101,21.176-47.259,47.27-47.259C426.096,514.45,447.26,535.608,447.26,561.708z" style="fill: rgb(130, 58, 66);"></path>
		<path class="st0" d="M429.124,457.699c0,16.079-13.048,29.11-29.122,29.11c-16.084,0-29.109-13.031-29.109-29.11l-18.161-213.756
			c0-26.1,21.176-47.264,47.27-47.264c26.094,0,47.259,21.164,47.259,47.264L429.124,457.699z" style="fill: rgb(130, 58, 66);"></path>
	</g>
</g>
</svg>
